<?xml version="1.0" standalone="no"?><!DOCTYPE svg PUBLIC "-//W3C//DTD SVG 1.1//EN" "http://www.w3.org/Graphics/SVG/1.1/DTD/svg11.dtd"><svg t="1743229319567" class="icon" viewBox="0 0 1024 1024" version="1.1" xmlns="http://www.w3.org/2000/svg" p-id="7758" id="mx_n_1743229319568" xmlns:xlink="http://www.w3.org/1999/xlink" width="200" height="200"><path d="M512 0C229.205333 0 0 229.205333 0 512s229.205333 512 512 512c282.752 0 512-229.205333 512-512S794.794667 0 512 0z m262.869333 373.333333l-316.970666 316.928c-1.066667 1.493333-1.706667 3.242667-3.029334 4.565334a30.890667 30.890667 0 0 1-22.869333 9.002666 30.805333 30.805333 0 0 1-22.869333-9.002666c-1.322667-1.322667-1.962667-3.072-3.029334-4.565334L249.130667 533.333333a31.274667 31.274667 0 0 1 44.202666-44.202666l138.666667 138.709333 298.666667-298.709333a31.274667 31.274667 0 0 1 44.202666 44.202666z" fill="#51C7C9" p-id="7759"></path></svg>